<svg width="16" height="16" viewBox="0 0 16 16" fill="none" xmlns="http://www.w3.org/2000/svg">
<path d="M1.77778 15.9658H14.2222C14.6937 15.9658 15.1459 15.7976 15.4793 15.4981C15.8127 15.1987 16 14.7926 16 14.3691V5.58747C16 5.37574 15.9064 5.17268 15.7397 5.02296C15.573 4.87325 15.3469 4.78914 15.1111 4.78914H12.4444V4.16883C12.4444 2.08598 10.7529 0.22108 8.44444 0.0191019C7.82656 -0.0360531 7.20265 0.0255691 6.61288 0.200004C6.0231 0.374439 5.48051 0.657824 5.02002 1.03193C4.55952 1.40603 4.19132 1.86256 3.9391 2.37216C3.68688 2.88176 3.55623 3.43313 3.55556 3.99081V4.78914H0.888889C0.653141 4.78914 0.427048 4.87325 0.260349 5.02296C0.0936505 5.17268 0 5.37574 0 5.58747V14.3691C0 14.7926 0.187301 15.1987 0.520699 15.4981C0.854097 15.7976 1.30628 15.9658 1.77778 15.9658ZM12.4444 6.3858V7.98247H10.6667V6.3858H12.4444ZM5.33333 3.99081C5.33333 2.67036 6.52978 1.59581 8 1.59581C9.47022 1.59581 10.6667 2.67036 10.6667 3.99081V4.78914H5.33333V3.99081ZM3.55556 6.3858H5.33333V7.98247H3.55556V6.3858Z" fill="black" fill-opacity="0.6"/>
</svg>
