<svg width="16" height="17" viewBox="0 0 16 17" fill="none" xmlns="http://www.w3.org/2000/svg">
<path d="M4.44444 10.9359H12.4444C12.9333 10.9359 13.3333 11.3586 13.3333 11.8751C13.3333 12.3917 12.9333 12.8143 12.4444 12.8143H3.55556C3.06667 12.8143 2.66667 12.3917 2.66667 11.8751V2.48318H0.888889C0.4 2.48318 0 2.06055 0 1.54399C0 1.02743 0.4 0.604797 0.888889 0.604797H3.55556C4.04444 0.604797 4.44444 1.02743 4.44444 1.54399V3.42238H16L12.4444 9.99673H4.44444V10.9359ZM4 13.7535C4.73778 13.7535 5.33333 14.3828 5.33333 15.1623C5.33333 15.9418 4.73778 16.5711 4 16.5711C3.26222 16.5711 2.66667 15.9418 2.66667 15.1623C2.66667 14.3828 3.26222 13.7535 4 13.7535ZM12 13.7535C12.7378 13.7535 13.3333 14.3828 13.3333 15.1623C13.3333 15.9418 12.7378 16.5711 12 16.5711C11.2622 16.5711 10.6667 15.9418 10.6667 15.1623C10.6667 14.3828 11.2622 13.7535 12 13.7535Z" fill="#10AB83"/>
</svg>
